<?xml version="1.0" encoding="utf-8"?>
<!-- Generator: Adobe Illustrator 24.3.0, SVG Export Plug-In . SVG Version: 6.00 Build 0)  -->
<svg version="1.1" id="Layer_1" xmlns="http://www.w3.org/2000/svg" xmlns:xlink="http://www.w3.org/1999/xlink" x="0px" y="0px"
	 viewBox="0 0 500 200" style="enable-background:new 0 0 500 200;" xml:space="preserve">
<style type="text/css">
	.st0{fill:#007BFF;}
	.st1{fill:#E20613;}
	.st2{fill:#1D1D1B;}
	.st3{fill-rule:evenodd;clip-rule:evenodd;fill:#E20613;}
</style>
<path class="st0" d="M490.1,163.7H9.9c-0.6,0-1-0.5-1-1v-3.9c0-0.6,0.5-1,1-1H490c0.6,0,1,0.5,1,1v3.9
	C491.1,163.3,490.6,163.7,490.1,163.7z"/>
<g>
	<path class="st1" d="M262.8,107.1h19.1v5.6h-9.5v9h8.8v5.6h-8.8V138h10.4v5.6h-19.9L262.8,107.1L262.8,107.1z M108.7,107.1h9.6
		v14.4h6.6v-14.4h9.6v36.4h-9.6v-16.3h-6.6v16.4h-9.6C108.7,143.6,108.7,107.1,108.7,107.1z"/>
	<path class="st2" d="M391.3,126.1v1.7h-5.8v-2c0-0.6-0.1-1-0.3-1.3c-0.2-0.2-0.6-0.4-1.2-0.4c-0.5,0-0.9,0.1-1.1,0.4
		c-0.2,0.2-0.3,0.7-0.3,1.3v1.5c0,0.6,0.2,1.1,0.5,1.5c0.4,0.5,1.1,1,2,1.6l2.4,1.4c0.1,0.1,0.3,0.2,0.6,0.3c1.2,0.7,2,1.3,2.4,1.8
		c0.3,0.4,0.6,0.9,0.7,1.4s0.2,1.1,0.2,1.8v1.4c0,1.7-0.7,3.1-2,4c-1.4,1-3.3,1.4-5.9,1.4s-4.5-0.4-5.6-1.3s-1.7-2.3-1.7-4.3v-1.7h6
		v1.9c0,0.7,0.1,1.2,0.4,1.5c0.2,0.3,0.7,0.4,1.3,0.4c0.6,0,1.1-0.1,1.3-0.4c0.2-0.3,0.4-0.8,0.4-1.5v-0.9c0-0.6-0.2-1.2-0.5-1.6
		c-0.4-0.5-1.2-1.1-2.5-1.8l-2.4-1.4c-1.2-0.7-2-1.4-2.5-2.2s-0.8-1.7-0.8-2.8v-2c0-1.5,0.7-2.7,2.1-3.7c1.4-0.9,3.3-1.4,5.6-1.4
		c2.2,0,3.9,0.5,5,1.3C390.7,123,391.3,124.4,391.3,126.1 M359.2,121.1h14.9v3.5h-4.4v19h-6.1v-19h-4.4V121.1L359.2,121.1z
		 M341.8,121.1h7.2c2.8,0,4.8,0.4,6.1,1.2s1.8,2.1,1.8,4v1c0,1.6-0.4,2.8-1.3,3.6c-0.9,0.8-2.4,1.3-4.4,1.5c2.1,0.1,3.6,0.6,4.4,1.4
		c0.8,0.8,1.3,2.2,1.3,4.2v5.5H351v-6.9c0-1.1-0.2-1.8-0.6-2.1c-0.4-0.3-1.2-0.5-2.4-0.5h-0.6v9.5h-5.5v-22.4H341.8z M347.4,124.5
		v6.3h0.5c1.2,0,2-0.2,2.4-0.6c0.5-0.4,0.7-1,0.7-2V127c0-1-0.2-1.6-0.7-2c-0.4-0.4-1.2-0.6-2.4-0.6L347.4,124.5L347.4,124.5z
		 M331.9,127.7c0-1.4-0.1-2.4-0.5-2.8s-0.8-0.6-1.7-0.6c-0.8,0-1.3,0.2-1.7,0.7c-0.3,0.5-0.5,1.4-0.5,2.8v9.3c0,1.4,0.1,2.4,0.5,2.8
		c0.3,0.4,0.8,0.6,1.7,0.6c0.8,0,1.3-0.2,1.7-0.7s0.5-1.4,0.5-2.8V127.7z M337.9,128.7v7.2c0,3-0.6,5.1-1.8,6.3
		c-1.2,1.1-3.3,1.7-6.3,1.7s-5.1-0.6-6.3-1.7c-1.2-1.1-1.8-3.2-1.8-6.3v-7.2c0-3,0.6-5.1,1.8-6.2c1.2-1.1,3.2-1.7,6.3-1.7
		c3,0,5.1,0.6,6.3,1.7S337.9,125.7,337.9,128.7z M304.1,121.1h6.2c3.2,0,5.4,0.5,6.7,1.4c1.3,0.9,1.9,2.5,1.9,4.7v1.4
		c0,2.1-0.6,3.7-1.9,4.7c-1.2,1-3.2,1.5-5.8,1.5h-1.6v8.8h-5.5L304.1,121.1L304.1,121.1z M309.6,124.5v7h0.5c1.1,0,1.8-0.2,2.2-0.6
		c0.4-0.4,0.6-1.2,0.6-2.3v-1.3c0-1.1-0.2-1.8-0.6-2.2c-0.4-0.4-1.2-0.6-2.2-0.6H309.6L309.6,124.5z M285.8,121.1h6l2.4,7.9l2.5-7.9
		h5l-4.5,11l5,11.5h-6l-3-8.4l-3,8.4H285l5.3-11.5L285.8,121.1z M237.2,121.1H249v3.5h-5.9v5.5h5.5v3.5h-5.5v6.6h6.4v3.5h-12.3
		V121.1L237.2,121.1z M233.3,127.3v0.9h-5.8v-0.5c0-1.4-0.1-2.4-0.4-2.8c-0.3-0.5-0.8-0.7-1.5-0.7s-1.3,0.2-1.6,0.7
		s-0.4,1.4-0.4,2.8v9.3c0,1.4,0.1,2.3,0.5,2.8c0.3,0.5,0.8,0.7,1.6,0.7c0.2,0,0.5,0,0.8,0s0.7-0.1,1.2-0.2v-5h-1.6v-3.5h7.4v11
		c-1.4,0.4-2.8,0.7-4,0.9c-1.2,0.2-2.4,0.3-3.6,0.3c-3,0-5.1-0.6-6.3-1.7s-1.8-3.2-1.8-6.3v-7.2c0-3,0.6-5.1,1.8-6.3
		s3.3-1.7,6.3-1.7c2.7,0,4.7,0.5,5.9,1.5C232.7,123.2,233.3,124.9,233.3,127.3z M203.1,121.1h7.6l4.8,22.5h-5.7l-0.8-4.7h-5l-1,4.7
		h-5.3L203.1,121.1z M206.6,125l-1.9,10.4h3.7l-1.6-10.4H206.6L206.6,125z M183,121.1h14.9v3.5h-4.4v19h-6.1v-19H183V121.1z
		 M174.3,121.1h6v22.5h-6V121.1z M155.3,121.1h7.2c2.8,0,4.8,0.4,6.1,1.2c1.2,0.8,1.8,2.1,1.8,4v1c0,1.6-0.4,2.8-1.3,3.6
		c-0.9,0.8-2.4,1.3-4.4,1.5c2.1,0.1,3.6,0.6,4.4,1.4c0.8,0.8,1.3,2.2,1.3,4.2v5.5h-5.9v-6.9c0-1.1-0.2-1.8-0.6-2.1
		c-0.4-0.3-1.2-0.5-2.4-0.5h-0.6v9.5h-5.5L155.3,121.1L155.3,121.1z M160.9,124.5v6.3h0.5c1.2,0,2-0.2,2.4-0.6c0.5-0.4,0.7-1,0.7-2
		V127c0-1-0.2-1.6-0.7-2c-0.4-0.4-1.2-0.6-2.4-0.6L160.9,124.5L160.9,124.5z M139.8,121.1h11.8v3.5h-5.9v5.5h5.5v3.5h-5.5v6.6h6.3
		v3.5h-12.3L139.8,121.1L139.8,121.1z"/>
	<path class="st3" d="M232.2,87.6l-7.8-7.8c-3.9-3.9-3.9-10.4,0-14.3l7.8-7.8V87.6z M263.4,92.2l-6.1,6.1c-3.9,3.9-10.4,3.9-14.3,0
		l-6.1-6.1h5.7V74.6h7v17.6l0,0h10.3C259.9,92.2,263.4,92.2,263.4,92.2z M269.4,59.1l6.4,6.4c3.9,3.9,3.9,10.4,0,14.3l-6.4,6.4h-9.5
		V74.7h9.3v-6h-9.3v-9.6H269.4z M257.2,46.9l6.1,6.1h-3.5h-10.3l0,0v15.5h-7V53.1h-5.7l6.1-6.1C246.9,43,253.3,43,257.2,46.9z"/>
</g>
</svg>
