<?xml version="1.0" encoding="utf-8"?>
<!-- Generator: Adobe Illustrator 24.3.0, SVG Export Plug-In . SVG Version: 6.00 Build 0)  -->
<svg version="1.1" id="Layer_1" xmlns="http://www.w3.org/2000/svg" xmlns:xlink="http://www.w3.org/1999/xlink" x="0px" y="0px"
	 viewBox="0 0 500 200" style="enable-background:new 0 0 500 200;" xml:space="preserve">
<style type="text/css">
	.st0{fill:#007BFF;}
	.st1{fill:#312782;}
	.st2{fill-rule:evenodd;clip-rule:evenodd;fill:#EC8600;}
	.st3{fill-rule:evenodd;clip-rule:evenodd;fill:#F2A230;}
	.st4{fill-rule:evenodd;clip-rule:evenodd;fill:#285D90;}
	.st5{fill-rule:evenodd;clip-rule:evenodd;fill:#1D1D1B;}
	.st6{fill-rule:evenodd;clip-rule:evenodd;fill:#EC8700;}
	.st7{fill-rule:evenodd;clip-rule:evenodd;fill:#FFFFFF;}
	.st8{fill-rule:evenodd;clip-rule:evenodd;fill:#F59E17;}
	.st9{fill:#2E2C2C;}
</style>
<path class="st0" d="M490.1,163.7H9.9c-0.6,0-1-0.5-1-1v-3.9c0-0.6,0.5-1,1-1h480.1c0.6,0,1,0.5,1,1v3.9
	C491.1,163.3,490.6,163.7,490.1,163.7z"/>
<g>
	<path class="st1" d="M466.9,129.6c1.7,1.7,3.3,2.9,4.6,3.7c1.7,0.8,2.9,1.2,4.6,1.2c1.2,0,2.5-0.4,3.3-1.2c0.8-0.8,1.2-1.7,1.2-2.9
		c0-1.2-0.4-2.1-1.2-2.9c-0.8-0.8-2.5-1.2-5.4-2.1c-3.7-0.8-6.7-2.1-7.9-3.7c-1.7-1.7-2.5-3.7-2.5-6.7c0-3.7,1.2-6.7,3.7-8.7
		c2.5-2.1,5.8-3.3,9.6-3.3c2.1,0,4.2,0.4,6.2,0.8c2.1,0.4,3.7,1.2,5.4,2.5l-3.3,7.5c-1.2-0.8-2.5-1.7-3.7-2.1s-2.5-0.8-3.7-0.8
		s-2.5,0.4-2.9,0.8c-0.8,0.4-1.2,1.2-1.2,2.1s0.4,1.7,1.2,2.1s2.1,1.2,4.2,1.7h0.4c4.2,1.2,7.1,2.5,8.7,3.7c0.8,0.8,1.7,2.1,2.1,3.3
		c0.4,1.2,0.8,2.9,0.8,4.2c0,4.2-1.2,7.1-4.2,9.6c-2.9,2.5-6.2,3.7-10.8,3.7c-2.9,0-5-0.4-7.5-1.2c-2.1-0.8-4.2-2.1-6.2-4.2
		L466.9,129.6z M434.4,141.7v-37.5h23.7v8.3h-13.3v6.7h12.9v7.9h-12.9v6.2h13.3v8.3H434.4z M404.4,129.6c1.7,1.7,3.3,2.9,4.6,3.7
		c1.7,0.8,2.9,1.2,4.6,1.2c1.2,0,2.5-0.4,3.3-1.2c0.8-0.8,1.2-1.7,1.2-2.9c0-1.2-0.4-2.1-1.2-2.9c-0.8-0.8-2.5-1.2-5.4-2.1
		c-3.7-0.8-6.7-2.1-7.9-3.7c-1.7-1.7-2.5-3.7-2.5-6.7c0-3.7,1.2-6.7,3.7-8.7c2.5-2.1,5.8-3.3,9.6-3.3c2.1,0,4.2,0.4,6.2,0.8
		c2.1,0.4,3.7,1.2,5.4,2.5l-3.3,7.5c-1.2-0.8-2.5-1.7-3.7-2.1c-1.2-0.4-2.5-0.8-3.7-0.8s-2.5,0.4-2.9,0.8c-0.8,0.4-1.2,1.2-1.2,2.1
		s0.4,1.7,1.2,2.1s2.1,1.2,4.2,1.7h0.4c4.2,1.2,7.1,2.5,8.7,3.7c0.8,0.8,1.7,2.1,2.1,3.3c0.4,1.2,0.8,2.9,0.8,4.2
		c0,4.2-1.2,7.1-4.2,9.6c-2.9,2.5-6.2,3.7-10.8,3.7c-2.9,0-5-0.4-7.5-1.2c-2.1-0.8-4.2-2.1-6.2-4.2L404.4,129.6z M383.6,141.7v-37.5
		h10.8v37.5H383.6z M358.2,122.1h2.1c2.1,0,3.7-0.4,5-1.2c1.2-0.8,1.7-2.1,1.7-3.3c0-2.1-0.4-3.3-1.7-4.2c-0.8-0.8-2.5-1.2-5-1.2
		h-2.1V122.1z M348.2,141.7v-37.5h11.2c4.2,0,7.5,0,9.2,0.4c1.7,0.4,3.3,0.8,4.6,2.1c1.2,0.8,2.5,2.5,3.3,3.7
		c0.8,1.7,1.2,3.3,1.2,5.4c0,2.9-0.8,5.4-2.1,7.1c-1.7,1.7-3.7,2.9-6.7,3.7l10.4,15h-12.1l-8.7-14.6v14.6H348.2z M324.1,121.3h2.1
		c2.5,0,4.2-0.4,5.4-0.8c0.8-0.8,1.7-1.7,1.7-3.3s-0.4-2.5-1.7-3.3c-0.8-0.8-2.9-0.8-5.4-0.8h-2.1V121.3z M324.1,141.7h-10v-37.5
		h11.2c4.2,0,7.5,0,9.2,0.4c1.7,0.4,3.3,1.2,4.6,2.1c1.2,1.2,2.5,2.5,3.3,4.2c0.8,1.7,1.2,3.7,1.2,5.8s-0.4,4.2-1.2,5.8
		s-1.7,2.9-3.3,4.2c-1.2,0.8-2.5,1.2-3.7,1.7c-1.7,0.4-3.7,0.4-7.1,0.4h-1.7h-2.1v12.9H324.1z M289.1,122.1h2.1c2.1,0,3.7-0.4,5-1.2
		c1.2-0.8,1.7-2.1,1.7-3.3c0-2.1-0.4-3.3-1.7-4.2c-0.8-0.8-2.5-1.2-5-1.2h-2.1V122.1z M279.1,141.7v-37.5h11.2c4.2,0,7.5,0,9.2,0.4
		c1.7,0.4,3.3,0.8,4.6,2.1c1.2,0.8,2.5,2.5,3.3,3.7c0.8,1.7,1.2,3.3,1.2,5.4c0,2.9-0.8,5.4-2.1,7.1c-1.7,1.7-3.7,2.9-6.7,3.7
		l10.4,15h-12.1l-8.7-14.6v14.6H279.1z M248.3,141.7v-37.5h23.7v8.3h-13.3v6.7h12.5v7.9h-12.5v6.2h13.3v8.3H248.3z M223.8,141.7V113
		H215v-8.7h27.9v8.7h-8.7v28.7H223.8z M171.7,141.7v-37.5h10.4l14.6,19.1c0.4,0.4,0.8,1.2,1.2,2.5c0.8,1.2,1.2,2.5,2.1,4.2
		c0-1.7-0.4-2.9-0.4-4.2s0-2.1,0-3.3v-18.3h10v37.5h-10l-14.6-19.1c-0.4-0.4-0.8-1.2-1.2-2.5c-0.8-1.2-1.2-2.5-2.1-4.2
		c0.4,1.7,0.4,2.9,0.4,4.2s0,2.1,0,3.3v18.3C182.1,141.7,171.7,141.7,171.7,141.7z M140.9,141.7v-37.5h23.7v8.3h-13.3v6.7h12.9v7.9
		h-12.9v6.2h13.3v8.3H140.9z M84.3,141.7v-37.5h10.4v17.1l12.5-17.1h12.5l-14.6,18.3l15.8,19.1h-13.3L95.2,125v16.6H84.3z
		 M56.9,134.2c2.9,0,5.4-0.8,7.5-2.9c2.1-2.1,2.9-4.6,2.9-7.9s-0.8-5.8-2.9-7.9c-2.1-2.1-4.2-3.3-7.1-3.3c-2.9,0-5.4,1.2-7.5,3.3
		s-2.9,4.6-2.9,7.9s0.8,5.8,2.9,7.9C51.4,133,53.9,134.2,56.9,134.2z M77.7,123c0,2.5-0.4,5.4-1.7,7.5c-0.8,2.5-2.5,4.6-4.6,6.2
		s-4.2,3.3-6.7,4.2s-5,1.7-7.9,1.7c-2.9,0-5.4-0.4-7.9-1.7c-2.5-0.8-4.6-2.5-6.7-4.2s-3.3-4.2-4.6-6.2c-0.8-2.5-1.7-5-1.7-7.5
		c0-2.5,0.4-5,1.7-7.5c1.2-2.5,2.5-4.6,4.6-6.2s4.2-3.3,6.7-4.2c2.5-0.8,5.4-1.7,7.9-1.7c2.9,0,5.4,0.4,7.9,1.7
		c2.5,0.8,5,2.5,6.7,4.2c2.1,1.7,3.3,3.7,4.6,6.2C77.3,118,77.7,120.5,77.7,123z M9.8,141.7v-37.5h10.4V133h13.3v8.7H9.8z"/>
	<path class="st2" d="M153.4,85.1c0.8-30,25-55.4,57.4-55.8c0,5.4,0,10.8,0,15.8c-24.1,1.2-39.5,17.9-40,40
		C164.7,85.1,159.3,85.1,153.4,85.1"/>
	<path class="st3" d="M140.9,85.1c-2.5,0-2.9-1.7-2.9-3.3c0.8-35,31.2-65.8,67.4-68.7c2.9-0.4,5.4,0.8,5.4,3.7c0,5.4,0,0.8,0,6.2
		c-20-1.2-61.6,14.2-62.9,62C141.8,85.1,146.8,85.1,140.9,85.1"/>
	<path class="st4" d="M195.5,58c2.1,0.4,3.7,1.2,5.4,2.5l1.2-1.2l1.7,1.7l-1.2,1.2c1.2,1.7,2.1,3.3,2.5,5.4h1.7v2.5H205
		c-0.4,5.4-4.6,9.6-10,10v1.7h-2.5v-1.2c-2.1-0.4-4.2-1.2-5.8-2.5l-0.8,0.8l-2.1-1.7l0.8-1.2c-1.2-1.7-2.1-3.7-2.1-5.8h-1.7v-2.5
		h1.7c0.4-2.1,1.2-3.7,2.1-5.4l-0.8-1.2l2.1-1.7l0.8,0.8c1.7-1.2,3.7-2.1,5.8-2.5V56h3.3V58H195.5z"/>
	<path class="st5" d="M192.6,69.7l1.2-0.8l0.8-1.7c-0.8-0.8-1.2-1.2-2.1-2.1c4.2-1.7,7.1,2.5,5,5.4l11.2,9.2
		c2.5,2.5-0.8,6.2-3.7,3.3l-8.7-10.8c-3.7,2.1-7.5-2.1-5.8-5L192.6,69.7z"/>
	<path class="st4" d="M218.4,23.1c0-12.9,17.1-11.7,11.7-3.3c-2.1,2.1-4.6-0.8-4.6,3.3c0,9.2,0,18.7,0,27.9c0,2.5,0.8,3.3,1.7,2.9
		c9.6,0,19.1,0,28.7,0c1.2,0,2.1-0.4,2.1-2.5c0-1.7,0-3.3,0-5.4c0-4.6,7.1-4.2,7.1,0c0,2.5,0,5,0,7.5c-0.8,5.4-4.6,7.5-8.3,7.9h-30
		c-3.3-0.4-7.9-1.7-8.3-8.7C218.4,44.3,217.9,31.4,218.4,23.1"/>
	<path class="st4" d="M317,23.5c0-3.3,6.2-4.2,7.1,0v10.4h24.6l1.7-1.2l5-5.8c0-0.8,0-1.7,0-2.5c0.8-5.8,10.8-3.7,6.2,6.2l-4.2,5
		c2.9,2.5,4.6,5,5.4,7.9c0,4.6,0,10.8,0,15.4c-0.8,4.2-6.7,3.7-7.1,0c0-4.6,0-9.6,0-14.2c0-1.7-1.7-2.9-2.9-3.7h-28.7v17.9
		c-0.4,3.7-6.7,3.3-7.1,0C317,50.1,316.2,31.8,317,23.5"/>
	<path class="st6" d="M290,19.3c12.1,0,22.1,10,22.1,22.1S302,63.4,290,63.4c-12.1,0-22.1-10-22.1-22.1S277.9,19.3,290,19.3"/>
	<path class="st7" d="M290,23.9c9.6,0,17.5,7.9,17.5,17.5s-7.9,17.5-17.5,17.5c-9.6,0-17.5-7.9-17.5-17.5
		C272.5,31.4,280.4,23.9,290,23.9"/>
	<path class="st8" d="M290,26.4c8.3,0,15,6.7,15,15s-6.7,15-15,15s-15-6.7-15-15S281.6,26.4,290,26.4"/>
	<path class="st7" d="M290,38.5c1.7,0,2.5,1.2,2.5,2.5c0,1.7-1.2,2.5-2.5,2.5c-1.7,0-2.5-1.2-2.5-2.5S288.3,38.5,290,38.5"/>
	<path class="st7" d="M286.6,37.2l2.1-1.2c0-2.5,0-4.6,0.4-7.1c-3.3,0.4-6.2,2.1-8.3,5L286.6,37.2z"/>
	<path class="st7" d="M292,36.4l2.1,0.8c2.1-0.8,3.7-2.1,5.8-2.9c-2.1-2.9-4.6-4.6-7.9-5V36.4z"/>
	<path class="st7" d="M295.8,40.1v2.1c1.7,1.2,3.7,2.5,5.4,3.7c1.2-2.9,1.2-6.2,0-9.6L295.8,40.1z"/>
	<path class="st7" d="M294.1,45.5l-2.1,0.8c0,2.1-0.4,4.6-0.4,6.7c3.3-0.4,5.8-2.1,7.9-4.6L294.1,45.5z"/>
	<path class="st7" d="M288.3,46.8l-1.7-1.2c-2.1,0.8-4.2,2.1-6.2,2.9c2.1,2.9,5,4.2,8.3,4.6L288.3,46.8z"/>
	<path class="st7" d="M284.5,40.1v2.1c-1.7,1.2-3.7,2.5-5.4,3.7c-1.2-2.5-1.7-5.8,0-9.6L284.5,40.1z"/>
	<polygon class="st9" points="221.3,85.5 221.3,67.6 234.2,67.6 234.2,69.7 223.4,69.7 223.4,75.1 233.3,75.1 233.3,77.2 
		223.4,77.2 223.4,83.4 234.6,83.4 234.6,85.5 	"/>
	<path class="st9" d="M237.5,85.5V72.6h2.1v1.7c0.8-1.2,2.5-2.1,4.2-2.1c0.8,0,1.7,0,2.1,0.4c0.8,0.4,1.2,0.8,1.7,1.2
		c0.4,0.4,0.4,0.8,0.8,1.7c0,0.4,0,1.2,0,2.1v7.9h-2.1v-7.9c0-0.8,0-1.7-0.4-2.1c0-0.4-0.4-0.8-0.8-1.2c-0.4-0.4-0.8-0.4-1.7-0.4
		s-1.7,0.4-2.5,0.8c-0.8,0.4-0.8,1.7-0.8,3.3v7.1h-2.5V85.5z"/>
	<path class="st9" d="M256.2,83.4l0.4,2.1c-0.4,0-1.2,0-1.7,0c-0.8,0-1.2,0-1.7-0.4s-0.8-0.4-0.8-0.8s-0.4-1.2-0.4-2.5v-7.5h-1.7
		v-1.7h1.7v-3.3l2.1-1.2v4.6h2.1v1.7h-2.1v7.5c0,0.8,0,0.8,0,1.2c0,0,0,0.4,0.4,0.4c0,0,0.4,0,0.8,0
		C255.4,83.4,255.8,83.4,256.2,83.4"/>
	<path class="st9" d="M260,77.6h7.1c0-1.2-0.4-2.1-0.8-2.5c-0.8-0.8-1.7-1.2-2.9-1.2c-0.8,0-1.7,0.4-2.5,0.8
		C260.4,75.5,260,76.3,260,77.6 M267.1,81.3l2.1,0.4c-0.4,1.2-0.8,2.5-2.1,2.9c-0.8,0.8-2.1,1.2-3.7,1.2c-2.1,0-3.3-0.4-4.6-1.7
		c-1.2-1.2-1.7-2.9-1.7-5s0.4-3.7,1.7-5c1.2-1.2,2.5-1.7,4.2-1.7s3.3,0.4,4.2,1.7c1.2,1.2,1.7,2.9,1.7,5v0.4h-9.6
		c0,1.2,0.4,2.5,1.2,3.3c0.8,0.8,1.7,1.2,2.9,1.2c0.8,0,1.7-0.4,2.1-0.8C266.2,82.6,267.1,82.2,267.1,81.3z"/>
	<path class="st9" d="M272.1,85.5V72.6h2.1v2.1c0.4-0.8,0.8-1.7,1.2-1.7c0.4-0.4,0.8-0.4,1.2-0.4c0.8,0,1.7,0.4,2.1,0.8l-0.8,2.1
		c-0.4-0.4-1.2-0.4-1.7-0.4s-0.8,0-1.2,0.4c-0.4,0.4-0.8,0.8-0.8,1.2c-0.4,0.8-0.4,1.7-0.4,2.5v6.7h-1.7V85.5z"/>
	<path class="st9" d="M282.5,78.8c0,1.7,0.4,2.9,0.8,3.7c0.8,0.8,1.7,1.2,2.5,1.2c0.8,0,1.7-0.4,2.5-1.2c0.8-0.8,1.2-2.1,1.2-3.7
		s-0.4-2.9-0.8-3.7c-0.8-0.8-1.7-1.2-2.5-1.2s-1.7,0.4-2.5,1.2C282.9,75.9,282.5,77.2,282.5,78.8 M280.4,90.5V72.6h2.1v1.7
		c0.4-0.8,0.8-1.2,1.7-1.7c0.4-0.4,1.2-0.4,2.1-0.4c1.2,0,2.1,0.4,2.9,0.8c0.8,0.4,1.7,1.2,2.1,2.5c0.4,0.8,0.8,2.1,0.8,3.3
		s-0.4,2.5-0.8,3.7s-1.2,2.1-2.1,2.5c-0.8,0.4-1.7,0.8-2.9,0.8c-0.8,0-1.2,0-2.1-0.4c-0.4-0.4-1.2-0.8-1.2-1.2v6.2H280.4z"/>
	<path class="st9" d="M294.5,85.5V72.6h2.1v2.1c0.4-0.8,0.8-1.7,1.2-1.7c0.4-0.4,0.8-0.4,1.2-0.4c0.8,0,1.7,0.4,2.1,0.8l-0.8,2.1
		c-0.4-0.4-1.2-0.4-1.7-0.4c-0.4,0-0.8,0-1.2,0.4c-0.4,0.4-0.8,0.8-0.8,1.2c-0.4,0.8-0.4,1.7-0.4,2.5v6.7h-1.7V85.5z"/>
	<path class="st9" d="M302.9,85.5V72.6h2.1v12.9H302.9z M302.9,70.1v-2.5h2.1v2.5H302.9z"/>
	<path class="st9" d="M307.4,81.3l2.1-0.4c0,0.8,0.4,1.7,0.8,2.1c0.4,0.4,1.2,0.8,2.5,0.8c0.8,0,1.7,0,2.1-0.4
		c0.4-0.4,0.8-0.8,0.8-1.2c0-0.4-0.4-0.8-0.8-1.2c-0.4,0-1.2-0.4-2.1-0.8c-1.7-0.4-2.9-0.8-3.3-1.2c-0.4-0.4-1.2-0.8-1.2-1.2
		c-0.4-0.4-0.4-1.2-0.4-1.7s0-1.2,0.4-1.7s0.8-0.8,1.2-1.2c0.4-0.4,0.8-0.4,1.2-0.8c0.4,0,1.2-0.4,2.1-0.4c0.8,0,2.1,0,2.5,0.4
		c0.8,0.4,1.2,0.8,1.7,1.2c0.4,0.4,0.4,1.2,0.8,2.1l-2.1,0.4c0-0.8-0.4-1.2-0.8-1.7c-0.8,0-1.2-0.4-2.1-0.4c-0.8,0-1.7,0-2.1,0.4
		s-0.8,0.8-0.8,1.2c0,0.4,0,0.4,0.4,0.8c0,0.4,0.4,0.4,0.8,0.4s0.8,0.4,2.1,0.4c1.7,0.4,2.5,0.8,3.3,0.8c0.4,0.4,1.2,0.8,1.2,1.2
		c0.4,0.4,0.4,1.2,0.4,2.1s-0.4,1.2-0.8,2.1s-1.2,1.2-1.7,1.7c-0.8,0.4-1.7,0.4-2.9,0.4c-1.7,0-2.9-0.4-3.7-1.2
		C308.3,83.8,307.9,83,307.4,81.3"/>
	<path class="st9" d="M322.4,77.6h7.1c0-1.2-0.4-2.1-0.8-2.5c-0.8-0.8-1.7-1.2-2.9-1.2c-0.8,0-1.7,0.4-2.5,0.8
		C322.8,75.5,322.4,76.3,322.4,77.6 M329.9,81.3l2.1,0.4c-0.4,1.2-0.8,2.5-2.1,2.9c-0.8,0.8-2.1,1.2-3.7,1.2c-2.1,0-3.3-0.4-4.6-1.7
		s-1.7-2.9-1.7-5s0.4-3.7,1.7-5c1.2-1.2,2.5-1.7,4.2-1.7s3.3,0.4,4.2,1.7c1.2,1.2,1.7,2.9,1.7,5v0.4H322c0,1.2,0.4,2.5,1.2,3.3
		c0.8,0.8,1.7,1.2,2.9,1.2c0.8,0,1.7-0.4,2.1-0.8C329.1,82.6,329.5,82.2,329.9,81.3z"/>
	<path class="st9" d="M333.7,81.3l2.1-0.4c0,0.8,0.4,1.7,0.8,2.1c0.4,0.4,1.2,0.8,2.5,0.8c0.8,0,1.7,0,2.1-0.4s0.8-0.8,0.8-1.2
		c0-0.4-0.4-0.8-0.8-1.2c-0.4,0-1.2-0.4-2.1-0.8c-1.7-0.4-2.9-0.8-3.3-1.2c-0.4-0.4-1.2-0.8-1.2-1.2c-0.4-0.4-0.4-1.2-0.4-1.7
		s0-1.2,0.4-1.7s0.8-0.8,1.2-1.2c0.4-0.4,0.8-0.4,1.2-0.8c0.4,0,1.2-0.4,2.1-0.4c0.8,0,2.1,0,2.5,0.4c0.8,0.4,1.2,0.8,1.7,1.2
		c0.4,0.4,0.4,1.2,0.8,2.1l-2.1,0.4c0-0.8-0.4-1.2-0.8-1.7s-1.2-0.4-2.1-0.4c-0.8,0-1.7,0-2.1,0.4c-0.4,0.4-0.8,0.8-0.8,1.2
		c0,0.4,0,0.4,0.4,0.8c0,0.4,0.4,0.4,0.8,0.4s0.8,0.4,2.1,0.4c1.7,0.4,2.5,0.8,3.3,0.8c0.4,0.4,1.2,0.8,1.2,1.2
		c0.4,0.4,0.4,1.2,0.4,2.1s-0.4,1.2-0.8,2.1s-1.2,1.2-1.7,1.7c-0.8,0.4-1.7,0.4-2.9,0.4c-1.7,0-2.9-0.4-3.7-1.2
		C334.5,83.8,334.1,83,333.7,81.3"/>
</g>
</svg>
