<?xml version="1.0" encoding="utf-8"?>
<!-- Generator: Adobe Illustrator 24.3.0, SVG Export Plug-In . SVG Version: 6.00 Build 0)  -->
<svg version="1.1" id="Layer_1" xmlns="http://www.w3.org/2000/svg" xmlns:xlink="http://www.w3.org/1999/xlink" x="0px" y="0px"
	 viewBox="0 0 500 200" style="enable-background:new 0 0 500 200;" xml:space="preserve">
<style type="text/css">
	.st0{fill:#007BFF;}
	.st1{fill:#AEC90B;}
	.st2{fill-rule:evenodd;clip-rule:evenodd;fill:#E20613;}
	.st3{fill:#1D1D1B;}
	.st4{fill:#E20613;}
</style>
<path class="st0" d="M490.1,163.7H9.9c-0.6,0-1-0.5-1-1v-3.9c0-0.6,0.5-1,1-1H490c0.6,0,1,0.5,1,1v3.9
	C491.1,163.3,490.6,163.7,490.1,163.7z"/>
<g>
	<path class="st1" d="M305.7,57.3c8.7,3.4,14,7.8,14,12.6c0,10.8-26.8,19.5-59.9,19.5c-33,0-59.9-8.7-59.9-19.5
		c0-4.8,5.3-9.2,14-12.6c-7,3.3-11.3,7.4-11.3,11.8c0,10.9,25.6,19.8,57.2,19.8c31.5,0,57.2-8.9,57.2-19.8
		C317,64.7,312.8,60.6,305.7,57.3z"/>
	<path class="st2" d="M292.6,46h9.6v32.5h-9.6V46z M275.6,66.1l-3.4-11.7l-3.4,11.7C268.8,66.1,275.6,66.1,275.6,66.1z M277.6,73.2
		h-10.9l-1.6,5.3h-9.8L267.1,46h10.5l11.6,32.5h-10L277.6,73.2z M217.5,46h12.6l4.9,19.8l4.9-19.8h12.6v32.5h-7.8V53.7l-6.1,24.8
		h-7.1l-6.1-24.8v24.8h-7.8L217.5,46L217.5,46z"/>
	<path class="st3" d="M81.2,131.3h3.1l-1.6-8.1L81.2,131.3z M74.3,142.8l5.9-27.7h6.3l6.1,27.7h-6.1l-1.1-5.6h-5.2l-1.1,5.6H74.3z"
		/>
	<rect x="93.8" y="115.1" class="st3" width="6" height="27.7"/>
	<polygon class="st3" points="103,142.8 103,115.1 108.6,115.1 114.8,129.7 114.6,115.1 119.5,115.1 119.5,142.8 114.7,142.8 
		107.6,126.1 107.9,142.8 	"/>
	<rect x="122.7" y="115.1" class="st3" width="6" height="27.7"/>
	<path class="st3" d="M169,115.1h5.9v18.1c0,1.2,0.2,2.2,0.6,2.7c0.4,0.6,1,0.9,1.9,0.9s1.5-0.3,2-1c0.5-0.7,0.7-1.6,0.7-2.9v-17.8
		h4.6v18.6c0,3.2-0.7,5.5-1.9,7.2c-1.3,1.7-3.2,2.4-5.7,2.4c-2.8,0-4.8-0.8-6.1-2.4s-2-4.1-2-7.4V115.1z"/>
	<polygon class="st3" points="196.1,121.6 196.1,142.8 190.2,142.8 190.2,121.6 186.4,121.6 186.4,115.1 199.9,115.1 199.9,121.6 	
		"/>
	<path class="st3" d="M210,143.3c-1.2,0-2.4-0.3-3.4-0.8s-1.9-1.4-2.8-2.5c-1-1.3-1.7-2.9-2.2-4.8s-0.7-4-0.7-6.3s0.2-4.4,0.7-6.3
		s1.2-3.5,2.2-4.8c0.8-1.1,1.7-1.9,2.7-2.4s2.2-0.8,3.4-0.8s2.4,0.3,3.4,0.8s1.9,1.4,2.7,2.4c1,1.3,1.7,2.9,2.2,4.8s0.7,3.9,0.7,6.3
		c0,2.4-0.2,4.4-0.7,6.3s-1.2,3.4-2.2,4.8c-0.8,1.1-1.7,1.9-2.7,2.5C212.3,143,211.2,143.3,210,143.3 M209.9,136.8
		c1,0,1.7-0.7,2.2-2s0.7-3.3,0.7-5.9c0-2.6-0.2-4.5-0.7-5.8s-1.2-2-2.1-2c-1,0-1.7,0.7-2.2,1.9c-0.5,1.3-0.7,3.3-0.7,5.9
		c0,2.7,0.2,4.6,0.7,5.9C208.3,136.2,209,136.8,209.9,136.8z"/>
	<polygon class="st3" points="245.4,142.8 245.4,115.1 250.9,115.1 257.1,129.7 256.9,115.1 261.8,115.1 261.8,142.8 257,142.8 
		250,126.1 250.2,142.8 	"/>
	<path class="st3" d="M275.5,126.2c0-1.7-0.2-2.9-0.7-3.9c-0.4-1-1-1.4-1.7-1.4c-1,0-1.7,0.7-2.2,2s-0.7,3.4-0.7,6.3
		c0,2.7,0.2,4.6,0.7,5.8c0.5,1.2,1.2,1.8,2.1,1.8c0.7,0,1.3-0.4,1.7-1.1c0.4-0.7,0.7-1.9,0.8-3.5l5.4,0.5c-0.3,3.3-1.1,5.9-2.5,7.8
		c-1.4,1.9-3.2,2.8-5.5,2.8c-2.7,0-4.9-1.3-6.5-3.8s-2.4-6-2.4-10.3c0-4.6,0.8-8.2,2.4-10.8c1.6-2.6,3.7-3.9,6.5-3.9
		c2.3,0,4.2,1,5.6,3s2.2,4.7,2.4,8.2L275.5,126.2z"/>
	<path class="st3" d="M291.6,143.3c-1.2,0-2.4-0.3-3.4-0.8s-1.9-1.4-2.8-2.5c-1-1.3-1.7-2.9-2.2-4.8s-0.7-4-0.7-6.3s0.2-4.4,0.7-6.3
		s1.2-3.5,2.2-4.8c0.8-1.1,1.7-1.9,2.7-2.4s2.2-0.8,3.4-0.8c1.2,0,2.4,0.3,3.4,0.8s1.9,1.4,2.7,2.4c1,1.3,1.7,2.9,2.2,4.8
		s0.7,3.9,0.7,6.3c0,2.4-0.2,4.4-0.7,6.3s-1.2,3.4-2.2,4.8c-0.8,1.1-1.7,1.9-2.7,2.5C294,143,292.9,143.3,291.6,143.3 M291.6,136.8
		c1,0,1.7-0.7,2.2-2s0.7-3.3,0.7-5.9c0-2.6-0.2-4.5-0.7-5.8s-1.2-2-2.1-2c-1,0-1.7,0.7-2.2,1.9c-0.5,1.3-0.7,3.3-0.7,5.9
		c0,2.7,0.2,4.6,0.7,5.9C289.9,136.2,290.6,136.8,291.6,136.8z"/>
	<path class="st3" d="M311.8,121H309v5.4h2.8c0.7,0,1.2-0.2,1.7-0.7s0.7-1.2,0.7-1.9c0-0.9-0.2-1.6-0.6-2
		C313.2,121.3,312.6,121,311.8,121 M303.2,142.8v-27.7h9.4c2.5,0,4.4,0.7,5.7,2c1.2,1.3,1.9,3.4,1.9,6.1c0,1.9-0.3,3.4-0.9,4.7
		c-0.6,1.3-1.4,2.2-2.5,2.8l3.5,12.1H314l-2.9-10.5h-2v10.5C309.1,142.8,303.2,142.8,303.2,142.8z"/>
	<path class="st3" d="M322.4,142.8v-27.7h8.2c1.3,0,2.4,0.1,3.2,0.3c0.8,0.2,1.5,0.6,2.1,1.1c0.9,0.8,1.6,1.9,2.1,3.1
		s0.7,2.7,0.7,4.2c0,2.7-0.6,4.8-1.9,6.4s-2.9,2.4-5,2.4h-3.4v10.1L322.4,142.8L322.4,142.8z M328.3,126.8h1.6
		c0.8,0,1.4-0.2,1.9-0.7s0.7-1.2,0.7-2c0-0.9-0.2-1.5-0.5-2c-0.4-0.5-0.9-0.7-1.6-0.7h-1.9L328.3,126.8L328.3,126.8z"/>
	<path class="st3" d="M349,143.3c-1.2,0-2.4-0.3-3.4-0.8s-1.9-1.4-2.8-2.5c-1-1.3-1.7-2.9-2.2-4.8s-0.7-4-0.7-6.3s0.2-4.4,0.7-6.3
		s1.2-3.5,2.2-4.8c0.8-1.1,1.7-1.9,2.7-2.4s2.2-0.8,3.4-0.8c1.2,0,2.4,0.3,3.4,0.8s1.9,1.4,2.7,2.4c1,1.3,1.7,2.9,2.2,4.8
		s0.7,3.9,0.7,6.3c0,2.4-0.2,4.4-0.7,6.3s-1.2,3.4-2.2,4.8c-0.8,1.1-1.7,1.9-2.7,2.5C351.3,143,350.2,143.3,349,143.3 M348.9,136.8
		c1,0,1.7-0.7,2.2-2s0.7-3.3,0.7-5.9c0-2.6-0.2-4.5-0.7-5.8s-1.2-2-2.1-2c-1,0-1.7,0.7-2.2,1.9c-0.5,1.3-0.7,3.3-0.7,5.9
		c0,2.7,0.2,4.6,0.7,5.9C347.3,136.2,348,136.8,348.9,136.8z"/>
	<path class="st3" d="M369.1,121h-2.7v5.4h2.8c0.7,0,1.2-0.2,1.7-0.7c0.4-0.5,0.7-1.2,0.7-1.9c0-0.9-0.2-1.6-0.6-2
		C370.5,121.3,369.9,121,369.1,121 M360.5,142.8v-27.7h9.4c2.5,0,4.4,0.7,5.7,2c1.2,1.3,1.9,3.4,1.9,6.1c0,1.9-0.3,3.4-0.9,4.7
		c-0.6,1.3-1.4,2.2-2.5,2.8l3.5,12.1h-6.3l-2.9-10.5h-2v10.5C366.4,142.8,360.5,142.8,360.5,142.8z"/>
	<path class="st3" d="M385.1,131.3h3.1l-1.6-8.1L385.1,131.3z M378.2,142.8l5.9-27.7h6.3l6.1,27.7h-6.1l-1.1-5.6h-5.2l-1.1,5.6
		H378.2z"/>
	<polygon class="st3" points="405,121.6 405,142.8 399.1,142.8 399.1,121.6 395.3,121.6 395.3,115.1 408.8,115.1 408.8,121.6 	"/>
	<rect x="410.5" y="115.1" class="st3" width="6" height="27.7"/>
	<path class="st3" d="M428,143.3c-1.2,0-2.4-0.3-3.4-0.8s-1.9-1.4-2.8-2.5c-1-1.3-1.7-2.9-2.2-4.8s-0.7-4-0.7-6.3s0.2-4.4,0.7-6.3
		s1.2-3.5,2.2-4.8c0.8-1.1,1.7-1.9,2.7-2.4s2.2-0.8,3.4-0.8c1.2,0,2.4,0.3,3.4,0.8s1.9,1.4,2.7,2.4c1,1.3,1.7,2.9,2.2,4.8
		s0.7,3.9,0.7,6.3c0,2.4-0.2,4.4-0.7,6.3s-1.2,3.4-2.2,4.8c-0.8,1.1-1.7,1.9-2.7,2.5C430.5,143,429.3,143.3,428,143.3 M428,136.8
		c1,0,1.7-0.7,2.2-2s0.7-3.3,0.7-5.9c0-2.6-0.2-4.5-0.7-5.8s-1.2-2-2.1-2c-1,0-1.7,0.7-2.2,1.9c-0.5,1.3-0.7,3.3-0.7,5.9
		c0,2.7,0.2,4.6,0.7,5.9C426.4,136.2,427.1,136.8,428,136.8z"/>
	<polygon class="st3" points="439.7,142.8 439.7,115.1 445.2,115.1 451.4,129.7 451.1,115.1 456,115.1 456,142.8 451.3,142.8 
		444.3,126.1 444.5,142.8 	"/>
	<polygon class="st4" points="44,142.8 44,105.7 54.2,105.7 57.9,127.6 58.1,127.6 61.9,105.7 72,105.7 72,142.8 65.2,142.8 
		65.8,113.7 65.7,113.7 60.6,142.8 55.2,142.8 50.2,113.7 50.1,113.7 50.8,142.8 	"/>
	<path class="st4" d="M153.2,128.8h4.5l-2.3-16.6L153.2,128.8z M143.4,142.5l7.3-37.1h9.5l7.2,37.1h-7.9l-1-7.2h-6.2l-1,7.2H143.4z"
		/>
	<rect x="233.5" y="105.5" class="st4" width="8" height="37.2"/>
</g>
</svg>
