<?xml version="1.0" encoding="utf-8"?>
<!-- Generator: Adobe Illustrator 24.3.0, SVG Export Plug-In . SVG Version: 6.00 Build 0)  -->
<svg version="1.1" id="Layer_1" xmlns="http://www.w3.org/2000/svg" xmlns:xlink="http://www.w3.org/1999/xlink" x="0px" y="0px"
	 viewBox="0 0 500 200" style="enable-background:new 0 0 500 200;" xml:space="preserve">
<style type="text/css">
	.st0{fill-rule:evenodd;clip-rule:evenodd;fill:#E20613;}
	.st1{fill-rule:evenodd;clip-rule:evenodd;fill:#1D1D1B;}
	.st2{fill:#E20613;}
	.st3{fill-rule:evenodd;clip-rule:evenodd;fill:#AEC90B;}
	.st4{fill:#007BFF;}
</style>
<g>
	<path class="st0" d="M215,128.1l-2.3-14.9l-2.3,14.9H215z M216.5,136.8h-7.9l-1.2,6.7h-7l8.5-41.6h7.6l8.5,41.6h-7.3L216.5,136.8z
		 M120.8,128.1l-2.3-14.9l-2.3,14.9C116.1,128.1,120.8,128.1,120.8,128.1z M122.2,136.8h-7.9l-1.2,6.7h-7l8.5-41.6h7.6l8.5,41.6
		h-7.3L122.2,136.8z M8.9,102.3H18l3.5,25.2l3.5-25.2h9.1v41.6h-5.6v-31.6l-4.4,31.6h-5l-4.4-31.6v31.6H8.9V102.3z"/>
	<path class="st1" d="M485.5,133.9h5.6v10h-5.6V133.9z M471.7,117.5v18.7h1.5c1.2,0,2-0.3,2.6-0.6c0.6-0.6,0.9-1.5,1.2-2.6
		c0.3-1.2,0.3-3.2,0.3-5.9c0-3.5-0.3-6.1-0.9-7.3c-0.6-1.5-1.8-2-3.2-2L471.7,117.5L471.7,117.5z M465.9,109.6h8.5
		c1.8,0,2.9,0.3,4.1,1.2c0.9,0.9,1.8,2,2.6,3.5c0.6,1.5,1.2,3.5,1.5,5.6c0.3,2,0.6,4.4,0.6,6.7c0,3.5-0.3,6.4-0.6,8.5
		c-0.6,2-1.2,3.8-1.8,5c-0.9,1.5-1.8,2.3-2.6,2.6c-1.2,0.6-2.3,0.9-3.5,0.9h-8.5L465.9,109.6L465.9,109.6z M446.3,109.6h17.3v8.5
		h-5.9v25.8h-5.6v-25.8h-5.9V109.6z M431.6,109.6h5.6v25.8h8.8v8.5h-14.3V109.6z M414.4,134.5h5.6v9.4h-5.6V134.5z M398.9,109.6
		h17.3v8.5h-5.9v25.8h-5.6v-25.8h-5.9V109.6z M378.4,109.6h5.9l4.1,24.6l4.1-24.6h5.9l-6.7,34h-6.1L378.4,109.6z M367.5,124.3h1.5
		c1.2,0,1.8-0.3,2.3-1.2c0.6-0.6,0.6-1.8,0.6-2.6c0-1.2-0.3-2-0.6-2.6c-0.3-0.9-1.2-1.2-2-1.2h-1.8
		C367.5,116.6,367.5,124.3,367.5,124.3z M361.7,109.6h9.4c2,0,3.5,0.9,4.7,2.6c0.9,1.8,1.5,4.4,1.5,7.9c0,3.5-0.6,6.1-1.8,8.2
		c-1.2,2-2.9,2.9-5,2.9h-3.2v12.6h-5.6V109.6z M332.4,132.7l5.3-0.6c0,1.5,0.3,2.9,0.6,3.5c0.6,1.5,1.5,2,2.3,2
		c0.9,0,1.5-0.3,1.8-1.2c0.3-0.6,0.6-1.5,0.6-2.3c0-0.9-0.3-1.8-0.6-2.3c-0.3-0.6-1.5-1.5-2.9-2c-2.3-0.9-4.1-2.3-5.3-4.1
		s-1.5-3.8-1.5-6.4c0-1.8,0.3-3.2,0.9-5c0.6-1.5,1.5-2.6,2.3-3.5c1.2-0.9,2.6-1.2,4.4-1.2c2.3,0,4.1,0.9,5.3,2.3
		c1.2,1.5,2,4.1,2,7.6l-5.3,0.6c0-1.5-0.3-2.6-0.9-3.2c-0.6-0.6-1.2-1.2-1.8-1.2c-0.6,0-1.2,0.3-1.5,0.9s-0.6,1.2-0.6,1.8
		c0,0.6,0,0.9,0.3,1.5c0.3,0.6,0.9,0.9,1.8,1.2c2.3,0.9,4.1,2,5.3,2.9c1.2,0.9,1.8,2.3,2.3,3.8c0.6,1.5,0.6,3.2,0.6,5
		c0,2-0.3,4.1-0.9,5.9c-0.6,1.8-1.5,3.2-2.6,4.1c-1.2,0.9-2.6,1.5-4.4,1.5c-2.9,0-5.3-1.2-6.4-3.2
		C333.3,138.9,332.7,136.3,332.4,132.7z M315.4,110.5h14.6v7h-9.4v5.3h8.5v6.7h-8.5v6.4h9.4v7.6h-14.9L315.4,110.5L315.4,110.5z
		 M305.8,110.5h5.6v33.4h-5.6V110.5z M298.2,130.1l5,2.6c-0.3,2.6-0.9,4.7-1.5,6.4c-0.6,1.8-1.5,2.9-2.6,3.8
		c-1.2,0.9-2.3,1.2-4.1,1.2c-2,0-3.5-0.6-4.7-1.5c-1.2-1.2-2.3-2.9-3.2-5.6c-0.9-2.6-1.5-6.1-1.5-10.2c0-5.6,0.9-9.7,2.3-12.6
		c1.5-2.9,3.8-4.4,6.7-4.4c2.3,0,4.1,0.9,5.3,2.6s2.3,4.4,2.9,7.9l-5,2c-0.3-0.9-0.3-1.8-0.6-2.3c-0.3-0.9-0.6-1.5-1.2-1.8
		c-0.6-0.3-0.9-0.6-1.5-0.6c-1.2,0-2.3,0.9-2.9,2.9c-0.6,1.5-0.9,3.5-0.9,6.4c0,3.8,0.3,6.1,0.9,7.6c0.6,1.5,1.5,2,2.6,2
		c1.2,0,1.8-0.6,2.3-1.8C297.6,133.9,297.9,132.4,298.2,130.1z M265.4,110.5h5.3l6.7,18.4v-18.4h5.3v33.4h-5.3l-6.7-18.4v18.1h-5.3
		V110.5z M247.5,110.5h14.6v7h-9.1v5.3h8.5v6.7h-8.5v6.4h9.4v7.6h-14.9V110.5z M235.5,131.9v-7h8.5v14.1c-1.8,2-3.2,3.5-4.4,4.4
		c-1.2,0.9-2.6,1.2-4.4,1.2c-2,0-3.8-0.6-5.3-2c-1.5-1.5-2.3-3.2-3.2-6.1c-0.9-2.6-1.2-5.9-1.2-9.1c0-3.5,0.3-6.7,1.2-9.4
		c0.9-2.6,2-4.7,3.5-6.1c1.2-1.2,2.9-1.8,5-1.8c2,0,3.5,0.3,4.4,0.9c0.9,0.6,1.8,1.8,2.3,3.2c0.6,1.5,1.2,3.2,1.5,5.3l-5,2
		c-0.3-1.2-0.6-2.3-1.2-2.9c-0.6-0.6-1.2-0.9-2-0.9c-1.2,0-2,0.9-2.9,2.3c-0.6,1.5-1.2,4.1-1.2,7.3c0,3.5,0.3,6.1,1.2,7.6
		c0.6,1.5,1.8,2.3,2.9,2.3c0.6,0,1.2-0.3,1.8-0.6c0.6-0.3,1.2-0.9,2-1.8v-3.2h-3.5V131.9z M176.1,127.2c0,3.2,0.3,5.9,0.9,7.3
		c0.6,1.5,1.5,2.3,2.6,2.3c1.2,0,2-0.6,2.6-2c0.6-1.5,0.9-4.1,0.9-7.6c0-3.2-0.3-5.6-0.9-6.7c-0.6-1.5-1.5-2-2.6-2
		c-1.2,0-2,0.9-2.6,2.3C176.4,121.3,176.1,124,176.1,127.2z M170.5,127.2c0-5.6,0.9-9.7,2.3-12.6c1.8-2.9,3.8-4.7,6.7-4.7
		c2.9,0,5.3,1.5,6.7,4.4c1.5,2.9,2.3,7,2.3,12.6c0,3.8-0.3,7-1.2,9.7c-0.6,2.3-1.8,4.4-2.9,5.9c-1.5,1.5-2.9,2-5,2s-3.8-0.6-5-1.8
		c-1.5-1.2-2.3-3.2-3.2-5.6C170.8,134.2,170.5,131,170.5,127.2z M151.8,110.5h16.7v8.2h-5.6v25.2h-5.6v-25.2h-5.6
		C151.8,118.7,151.8,110.5,151.8,110.5z M143.9,110.5h5.6v19.9c0,2-0.3,3.8-0.6,5.6c-0.3,1.8-0.9,3.2-1.5,4.7
		c-0.6,1.2-1.5,2.3-2.3,2.6c-1.2,0.9-2.3,1.2-3.8,1.2c-0.9,0-1.8,0-2.9-0.3c-1.2-0.3-1.8-0.6-2.6-1.5c-0.6-0.6-1.5-1.8-1.8-2.9
		c-0.6-1.2-0.9-2.6-1.2-3.8c-0.3-2-0.6-4.1-0.6-5.6v-19.9h5.6v20.2c0,1.8,0.3,3.2,0.9,4.4c0.6,0.9,1.2,1.5,2.3,1.5
		c0.9,0,1.8-0.6,2.3-1.5c0.6-0.9,0.9-2.3,0.9-4.4L143.9,110.5L143.9,110.5z M88.3,110.5h5.6v33.4h-5.6V110.5z M67.2,110.5h5.3
		l6.7,18.4v-18.4h5.3v33.4h-5.3l-6.7-18.4v18.1h-5.3V110.5z M57.8,110.5h5.6v33.4h-5.6V110.5z M47.9,131.3l-2-12l-1.8,12H47.9z
		 M49,138.3h-6.1l-0.9,5.6h-5.6l6.7-33.4h6.1l6.7,33.4h-5.9L49,138.3z"/>
	<polygon class="st2" points="205.1,77.4 205.1,46.1 217.7,46.1 222.3,66.3 226.7,46.1 239.3,46.1 239.3,77.4 232,77.4 232,52.2 
		225.6,77.4 218.2,77.4 211.8,52.2 211.8,77.4 	"/>
	<path class="st0" d="M242.2,77.4l11.1-31.6h9.7l11.4,31.6h-8.8l-2-6.1h-11.4l-2,6.1H242.2z M261.6,65.4l-3.5-13.2L254,65.4H261.6z"
		/>
	<path class="st3" d="M246.9,38.5c-29.9-5.9-54.2,0.3-54.2,13.5s24,26.9,53.9,32.8c28.1,5.6,46,2,53.9-9.4
		c-5,8.2-22.5,12.9-47.4,8.5c-65.9-10.2-74.4-54.7-3.2-42.2c14.9,2.6,28.4,7.6,38.1,13.2C278,47.8,263.3,41.7,246.9,38.5"/>
	<path class="st2" d="M294.6,65.4l-3.5-13.2L287,65.4H294.6z M275.3,77.4l11.1-31.6h9.7l11.4,31.6h-8.8l-2-6.1h-11.4l-2,6.1H275.3z"
		/>
</g>
<path class="st4" d="M490.1,163.7H9.9c-0.6,0-1-0.5-1-1v-3.9c0-0.6,0.5-1,1-1h480.1c0.6,0,1,0.5,1,1v3.9
	C491.1,163.3,490.6,163.7,490.1,163.7z"/>
</svg>
