<?xml version="1.0" encoding="utf-8"?>
<!-- Generator: Adobe Illustrator 24.3.0, SVG Export Plug-In . SVG Version: 6.00 Build 0)  -->
<svg version="1.1" id="Layer_1" xmlns="http://www.w3.org/2000/svg" xmlns:xlink="http://www.w3.org/1999/xlink" x="0px" y="0px"
	 viewBox="0 0 192 192" style="enable-background:new 0 0 192 192;" xml:space="preserve">
<style type="text/css">
	.st0{fill:#E20613;}
	.st1{fill-rule:evenodd;clip-rule:evenodd;fill:#E20613;}
	.st2{fill-rule:evenodd;clip-rule:evenodd;fill:#AEC90B;}
</style>
<g>
	<polygon class="st0" points="27.7,120.2 27.7,72.4 46.5,72.4 53.9,103.2 60.6,72.4 79.5,72.4 79.5,120.2 68.3,120.2 68.3,82 
		58.6,120.2 47.6,120.2 37.9,81.9 37.9,120.2 	"/>
	<path class="st1" d="M84.2,120.2l16.9-47.8h14.7l17.2,47.8h-13.5l-3-9.4H99.3l-3,9.4H84.2z M113.5,101.7L108,81.8l-6.1,19.9H113.5z
		"/>
	<path class="st2" d="M91,60.8C45.7,52,8.9,61.2,8.9,81.1c0,20,36.6,40.8,81.9,49.6c42.5,8.3,69.9,2.9,81.9-14.1
		c-7.8,12.4-34.3,19.6-71.9,12.9c-100.6-15.2-113.4-82.8-5-63.7c22.8,4,43.3,11.4,57.7,20C138.4,75,116,65.7,91,60.8"/>
	<path class="st0" d="M163.6,101.7l-5.5-19.9l-6.1,19.9H163.6z M134.3,120.2l16.9-47.8h14.7l17.2,47.8h-13.5l-3-9.4h-17.2l-3,9.4
		H134.3z"/>
</g>
</svg>
